<?xml version="1.0" standalone="no"?>
<!DOCTYPE svg PUBLIC "-//W3C//DTD SVG 20010904//EN"
 "http://www.w3.org/TR/2001/REC-SVG-20010904/DTD/svg10.dtd">
<svg version="1.0" xmlns="http://www.w3.org/2000/svg"
 width="1600.000000pt" height="1600.000000pt" viewBox="0 0 1600.000000 1600.000000"
 preserveAspectRatio="xMidYMid meet">

<g transform="translate(0.000000,1600.000000) scale(0.100000,-0.100000)"
fill="#000000" stroke="none">
<path d="M7740 15803 c-387 -20 -589 -39 -884 -84 -1326 -201 -2590 -758
-3641 -1603 -502 -403 -986 -903 -1362 -1407 -906 -1214 -1420 -2588 -1545
-4124 -17 -213 -17 -957 0 -1170 125 -1534 643 -2918 1543 -4120 736 -984
1699 -1783 2794 -2320 1277 -625 2665 -879 4095 -749 1261 114 2478 546 3545
1257 440 294 794 585 1180 971 302 302 492 520 738 848 608 809 1067 1772
1317 2763 505 1999 204 4141 -831 5900 -1205 2051 -3251 3434 -5564 3764 -450
64 -1011 94 -1385 74z m795 -274 c1512 -102 2957 -668 4145 -1623 222 -179
360 -304 610 -555 457 -458 776 -862 1117 -1416 258 -419 524 -991 690 -1480
210 -623 317 -1142 385 -1880 20 -219 17 -970 -5 -1210 -97 -1036 -342 -1901
-793 -2795 -238 -473 -521 -913 -848 -1320 -224 -278 -648 -722 -906 -947
-1646 -1436 -3791 -2078 -5945 -1777 -888 123 -1762 416 -2555 854 -911 503
-1729 1217 -2367 2063 -863 1146 -1368 2484 -1495 3957 -17 207 -18 1002 0
1200 62 694 197 1333 406 1922 337 947 807 1745 1480 2513 139 158 475 494
641 641 1400 1237 3190 1900 5040 1868 138 -2 318 -9 400 -15z"/>
<path d="M7978 15052 c-54 -6 -66 -38 -66 -179 0 -70 4 -135 9 -144 14 -27 63
-37 214 -43 644 -26 1259 -152 1850 -381 197 -76 621 -274 701 -327 91 -60
111 -49 204 115 74 129 74 142 -3 191 -108 68 -594 297 -762 359 -206 75 -270
97 -370 127 -60 17 -144 42 -185 55 -94 29 -339 89 -445 109 -324 61 -430 76
-684 97 -173 14 -425 25 -463 21z"/>
<path d="M7475 14324 c-251 -28 -313 -36 -430 -55 -367 -60 -736 -162 -1090
-302 -261 -103 -642 -292 -676 -335 -25 -33 -20 -68 16 -116 14 -19 39 -62 56
-96 57 -117 107 -138 190 -78 156 113 820 379 1119 448 52 12 129 30 170 40
314 77 586 109 1000 117 522 10 879 -31 1405 -163 307 -77 859 -301 1059 -429
108 -69 154 -57 210 57 20 40 51 95 68 121 l32 49 -19 36 c-18 33 -43 49 -255
154 -643 321 -1253 491 -2001 558 -161 14 -707 11 -854 -6z"/>
<path d="M7929 13041 c-34 -35 -38 -77 -10 -112 l19 -24 1960 -5 c1640 -4
1962 -7 1975 -19 16 -12 17 -152 17 -1821 0 -1796 0 -1807 20 -1833 11 -14 33
-28 49 -32 34 -7 85 15 95 41 3 9 6 864 6 1901 0 1388 -3 1889 -11 1899 -6 8
-28 18 -48 24 -24 6 -719 10 -2039 10 l-2004 0 -29 -29z"/>
<path d="M7883 12485 c-12 -8 -26 -30 -32 -48 -15 -45 -12 -500 3 -547 19 -59
93 -75 140 -30 18 18 19 35 18 282 -1 145 -1 273 -2 286 -1 55 -79 91 -127 57z"/>
<path d="M2628 11928 c-8 -7 -52 -83 -97 -168 -45 -85 -87 -163 -92 -174 -24
-43 -154 -351 -203 -481 -125 -329 -261 -810 -296 -1045 -7 -41 -25 -150 -41
-241 -32 -187 -56 -446 -66 -712 -6 -176 -6 -178 17 -202 23 -24 28 -25 151
-25 76 0 138 5 153 12 27 12 48 63 40 95 -9 33 25 526 46 678 65 465 178 910
338 1325 103 266 249 582 317 683 63 93 47 123 -110 211 -102 58 -130 65 -157
44z"/>
<path d="M7685 11740 c-373 -11 -557 -30 -752 -79 -97 -24 -219 -88 -263 -137
-136 -156 -208 -575 -246 -1448 -14 -337 -14 -350 4 -385 12 -23 35 -44 63
-58 54 -27 247 -63 343 -63 79 0 106 -9 83 -28 -14 -12 -185 -65 -327 -101
-47 -12 -111 -31 -143 -42 -31 -10 -80 -19 -107 -19 -58 0 -61 8 -30 70 11 22
20 51 20 65 0 35 -40 72 -86 81 -94 18 -496 -44 -728 -111 -264 -76 -392 -198
-332 -313 52 -99 276 -247 681 -450 175 -88 333 -154 580 -243 133 -48 157
-66 175 -137 6 -26 26 -74 43 -106 22 -40 28 -60 20 -63 -38 -14 -161 -160
-255 -304 -100 -154 -143 -289 -119 -371 20 -67 20 -66 334 -406 48 -52 97
-112 108 -134 11 -21 31 -87 44 -146 13 -59 38 -147 55 -197 18 -49 40 -117
50 -150 36 -121 151 -410 170 -430 18 -17 36 -20 141 -23 131 -4 159 0 183 24
24 24 19 61 -19 139 -49 98 -52 146 -25 318 30 183 30 182 -99 278 -114 86
-291 264 -331 334 -43 76 -55 134 -95 480 -26 224 -54 418 -69 480 -9 33 -15
66 -16 73 0 17 67 16 120 -3 96 -34 247 -57 403 -62 l158 -6 75 37 c67 34 79
44 122 108 57 85 80 104 107 85 17 -13 17 -22 7 -133 -6 -65 -21 -202 -32
-304 -12 -102 -18 -200 -15 -219 4 -19 19 -47 35 -63 24 -24 36 -28 83 -28 53
0 87 -18 87 -47 0 -25 -43 -61 -86 -73 -38 -11 -49 -19 -61 -47 -17 -43 -8
-98 20 -118 14 -10 46 -15 94 -15 86 0 94 -13 33 -54 -59 -39 -58 -72 6 -131
l44 -41 0 -82 c0 -77 -2 -83 -31 -116 -23 -27 -48 -41 -98 -56 -37 -11 -75
-28 -85 -39 -21 -23 -13 -60 19 -91 22 -21 24 -21 105 -6 45 9 91 16 101 16
46 0 10 -32 -102 -91 -140 -74 -182 -110 -220 -194 -26 -59 -59 -207 -59 -268
0 -43 50 -89 92 -85 58 6 78 53 103 250 7 54 56 133 95 154 14 7 73 35 131 62
193 90 365 216 880 646 52 43 130 108 174 145 44 36 116 100 160 142 44 42
117 107 161 145 45 38 126 108 180 155 102 89 138 113 156 107 13 -5 -129
-160 -253 -274 -199 -185 -323 -291 -554 -474 -55 -44 -134 -107 -175 -140
-41 -34 -106 -82 -145 -107 -38 -26 -88 -63 -110 -82 -22 -20 -76 -62 -120
-94 -44 -32 -109 -79 -144 -105 -35 -26 -98 -72 -141 -102 -80 -57 -180 -153
-180 -173 0 -7 -16 -44 -35 -82 -47 -96 -53 -127 -26 -154 l20 -20 1429 -1
1429 0 26 24 27 25 0 286 c0 250 -2 291 -17 315 -10 18 -52 48 -108 79 -51 28
-95 51 -98 51 -7 0 -181 97 -314 175 -91 53 -126 56 -181 16 -15 -10 -55 -34
-87 -52 -33 -17 -127 -72 -208 -121 -82 -49 -150 -88 -151 -86 -2 2 64 66 147
143 83 77 168 166 190 197 l40 57 -12 103 c-6 57 -16 126 -22 153 -5 28 -14
84 -19 125 -20 169 -50 373 -61 414 -23 92 -88 106 -154 34 -22 -24 -69 -68
-105 -98 -36 -30 -104 -90 -152 -132 -47 -43 -91 -78 -97 -78 -21 0 -11 28 35
95 56 82 134 237 164 324 34 103 57 233 75 426 19 205 30 241 77 258 69 25
298 142 418 213 232 138 385 297 412 427 12 54 11 61 -11 103 -67 126 -316
265 -617 343 -117 31 -294 66 -384 76 -114 13 -116 23 -17 61 84 32 127 70
127 111 0 82 -138 620 -265 1038 -19 61 -41 137 -50 170 -58 207 -119 354
-158 379 -36 24 -192 53 -347 65 -195 15 -783 20 -1115 11z m445 -3680 c25 -4
92 -4 150 0 58 5 160 11 228 15 l122 7 0 -26 c0 -39 -53 -147 -86 -177 -65
-58 -344 -179 -414 -179 -30 0 -79 48 -89 88 -15 56 -34 259 -27 278 5 13 13
15 39 9 17 -4 52 -11 77 -15z"/>
<path d="M3239 11572 c-53 -42 -264 -488 -371 -782 -287 -794 -392 -1626 -308
-2445 20 -201 27 -241 75 -500 46 -250 124 -545 187 -715 11 -30 37 -102 58
-160 20 -58 56 -150 80 -205 71 -167 246 -519 269 -539 32 -29 72 -24 133 17
30 20 67 39 83 43 15 4 47 26 71 49 53 50 57 84 18 136 -41 54 -214 419 -260
549 -12 36 -37 101 -54 145 -35 91 -142 442 -160 525 -104 482 -130 691 -137
1103 -6 313 3 498 33 742 78 621 285 1264 575 1785 47 86 27 125 -96 187 -38
20 -82 44 -96 54 -41 29 -72 32 -100 11z"/>
<path d="M12550 11578 c-13 -5 -32 -16 -41 -23 -8 -8 -47 -30 -86 -49 -122
-60 -141 -113 -77 -217 77 -127 201 -403 294 -654 123 -331 233 -795 265
-1115 30 -301 30 -302 61 -328 24 -21 34 -23 78 -17 28 4 91 10 139 14 107 10
132 27 131 94 0 46 -32 344 -39 364 -2 6 -9 49 -15 95 -53 387 -221 972 -383
1333 -78 173 -188 398 -221 447 -34 52 -68 70 -106 56z"/>
<path d="M4385 8955 c-33 -32 -34 -93 -4 -121 19 -18 42 -19 287 -22 147 -2
277 0 289 3 57 14 74 95 28 140 l-24 25 -276 0 -276 0 -24 -25z"/>
<path d="M10876 8959 c-23 -18 -27 -27 -24 -67 5 -79 12 -81 298 -82 135 -1
255 -1 267 -1 12 1 35 13 52 27 25 21 31 33 31 65 0 34 -5 42 -32 59 -31 19
-51 20 -299 20 -256 0 -267 -1 -293 -21z"/>
<path d="M3850 8953 c-8 -3 -23 -12 -32 -21 -17 -14 -18 -126 -18 -2092 0
-2060 0 -2077 20 -2095 19 -17 109 -18 2046 -17 l2027 1 23 22 c32 30 32 79 0
116 l-24 28 -1024 2 c-562 2 -1437 3 -1943 3 -562 0 -926 4 -935 10 -13 8 -16
246 -20 2011 l-5 2001 -24 19 c-22 18 -60 23 -91 12z"/>
<path d="M12956 8594 c-21 -20 -22 -29 -41 -229 -16 -178 -48 -374 -90 -560
-14 -60 -25 -116 -25 -125 0 -15 -77 -284 -110 -380 -45 -135 -135 -371 -167
-440 -101 -216 -154 -324 -182 -364 -60 -87 -36 -155 73 -207 34 -16 82 -43
108 -60 66 -44 89 -33 150 69 50 83 152 292 199 410 16 41 38 91 49 111 10 21
28 64 40 97 182 504 267 850 330 1354 36 287 35 263 8 295 -29 33 -80 43 -235
44 -71 1 -95 -3 -107 -15z"/>
<path d="M13713 8559 c-45 -13 -63 -44 -63 -107 0 -69 -36 -402 -56 -512 -54
-303 -111 -544 -201 -835 -29 -96 -131 -371 -182 -490 -47 -111 -196 -416
-257 -527 -39 -71 -28 -91 82 -156 131 -78 151 -86 186 -71 20 8 38 29 57 68
15 31 53 106 84 166 72 142 205 438 222 494 8 24 27 76 43 115 136 325 274
860 337 1302 18 132 42 330 50 425 7 74 6 76 -20 97 -15 12 -41 24 -59 26 -69
11 -193 13 -223 5z"/>
<path d="M6277 7138 c-8 -13 -22 -54 -32 -92 -24 -92 -44 -112 -135 -137 -41
-12 -138 -45 -216 -74 -213 -81 -356 -123 -489 -145 -115 -19 -185 -39 -375
-110 -103 -38 -128 -53 -140 -86 -6 -14 -12 -113 -14 -221 -5 -206 1 -242 39
-257 9 -3 432 -6 939 -6 881 0 924 1 939 18 23 25 21 60 -6 103 -12 20 -30 49
-40 65 -22 36 -149 260 -190 334 -17 30 -38 67 -48 81 -43 62 -101 258 -119
404 -12 100 -32 138 -73 143 -18 2 -30 -4 -40 -20z"/>
<path d="M7869 5921 l-29 -29 1 -249 c1 -136 5 -265 10 -286 26 -101 155 -75
161 33 1 19 1 142 0 273 l-2 238 -25 24 c-34 35 -78 33 -116 -4z"/>
<path d="M2847 4643 c-4 -3 -7 -426 -7 -940 l0 -933 5200 0 5200 0 0 940 0
940 -5193 0 c-2857 0 -5197 -3 -5200 -7z m1934 -223 c19 -5 54 -26 77 -46 l42
-36 0 37 0 36 62 -3 62 -3 -2 -45 c-1 -25 -4 -112 -8 -193 l-6 -148 -61 3 -60
3 -17 60 c-33 119 -76 165 -157 165 -81 0 -143 -95 -129 -199 9 -63 41 -92
155 -142 158 -69 225 -122 265 -208 18 -40 21 -64 21 -181 0 -117 -3 -144 -24
-200 -63 -174 -194 -253 -343 -208 -22 6 -62 31 -88 55 -26 24 -51 43 -54 43
-3 0 -6 -20 -6 -45 l0 -45 -66 0 -66 0 6 98 c3 53 8 152 12 220 l6 122 63 0
64 0 11 -57 c7 -32 23 -81 37 -110 87 -187 295 -126 296 87 0 101 -37 142
-188 206 -202 85 -256 152 -263 330 -6 145 26 248 106 336 63 70 155 95 253
68z m4434 -1 c25 -7 58 -29 88 -59 l47 -47 0 48 0 49 68 0 68 0 -3 -82 c-3
-46 -7 -141 -11 -213 l-7 -130 -66 -3 -67 -3 -12 50 c-45 191 -237 245 -378
108 -46 -44 -92 -124 -111 -192 -6 -22 -16 -81 -21 -131 -26 -221 41 -414 163
-473 53 -26 144 -28 193 -5 46 22 101 85 131 150 l24 54 79 0 79 0 -15 -52
c-44 -157 -151 -304 -259 -358 -43 -21 -64 -25 -145 -25 -81 0 -102 4 -140 24
-72 38 -108 70 -156 137 -55 77 -87 155 -110 264 -23 114 -15 341 15 455 56
212 182 377 325 427 58 20 162 23 221 7z m3500 -8 c22 -10 51 -31 65 -46 l25
-27 5 34 5 33 63 3 63 3 -6 -123 c-3 -68 -8 -156 -11 -196 l-6 -73 -61 3 -62
3 -6 40 c-20 114 -78 185 -154 185 -32 0 -51 -7 -75 -26 -45 -39 -60 -74 -60
-148 0 -88 22 -112 142 -162 166 -69 251 -139 283 -233 48 -142 17 -362 -69
-474 -53 -70 -106 -100 -182 -105 -84 -6 -143 16 -201 74 -43 43 -43 43 -43
16 0 -65 -7 -72 -73 -72 l-60 0 8 213 c4 116 9 215 12 220 2 4 33 7 67 7 l64
0 7 -47 c30 -201 176 -297 278 -183 76 84 76 211 0 283 -16 15 -79 49 -140 76
-61 26 -126 60 -146 75 -124 95 -154 309 -67 493 33 71 106 148 153 162 54 16
139 12 182 -8z m-9225 -75 c0 -100 -3 -106 -56 -106 -44 0 -44 0 -45 -37 -1
-21 -4 -100 -8 -176 l-6 -137 172 0 171 0 6 73 c3 39 8 118 11 174 l5 102 -47
3 c-38 2 -48 7 -47 21 0 9 1 49 2 87 l2 70 175 0 175 0 0 -37 c0 -21 -3 -62
-6 -90 l-7 -53 -42 0 -43 0 -6 -102 c-13 -218 -36 -710 -36 -767 l0 -61 45 0
45 0 0 -37 c0 -21 -3 -62 -6 -90 l-7 -53 -175 0 -175 0 7 38 c3 20 6 61 6 90
l0 52 44 0 c25 0 47 3 49 8 3 4 8 94 12 200 l8 192 -171 0 c-94 0 -173 -3
-175 -7 -3 -5 -8 -95 -12 -200 l-7 -193 46 0 46 0 0 -74 c0 -41 -3 -81 -6 -90
-5 -14 -31 -16 -181 -16 -156 0 -174 2 -169 16 3 9 6 49 6 90 l0 74 45 0 c28
0 47 5 50 13 2 6 11 181 19 387 9 206 19 410 22 453 l6 77 -46 0 -46 0 0 90 0
90 175 0 175 0 0 -74z m2484 59 c76 -20 134 -55 191 -116 86 -92 124 -210 132
-404 14 -342 -87 -596 -278 -699 -80 -44 -161 -56 -391 -56 l-208 0 0 44 c0
24 3 64 6 90 l7 46 43 0 43 0 5 53 c5 51 37 781 36 845 0 31 -1 32 -45 32
l-45 0 0 53 c0 28 3 69 6 90 l7 37 216 0 c161 0 232 -4 275 -15z m1089 -97
c-2 -62 -6 -141 -9 -175 l-6 -63 -70 0 -70 0 7 85 7 85 -139 0 -140 0 -7 -92
c-3 -50 -6 -122 -6 -160 l0 -68 115 0 115 0 0 -77 c0 -130 6 -123 -125 -123
l-114 0 -5 -52 c-3 -29 -8 -122 -11 -205 l-6 -153 134 0 134 0 7 53 c3 28 6
73 6 100 l0 47 74 0 75 0 -5 -52 c-2 -29 -7 -115 -10 -190 l-6 -138 -334 0
-334 0 0 90 0 90 49 0 48 0 7 128 c3 70 11 231 16 357 5 127 12 278 16 338 l6
107 -46 0 -46 0 0 90 0 90 339 0 339 0 -5 -112z m762 -60 c-4 -95 -8 -179 -11
-186 -3 -9 -23 -12 -71 -10 l-68 3 4 93 3 92 -56 0 c-31 0 -56 -1 -56 -2 -4
-41 -40 -839 -40 -875 l0 -53 55 0 55 0 0 -37 c0 -21 -3 -62 -6 -90 l-7 -53
-195 0 -194 0 6 23 c3 12 6 52 6 90 l0 67 55 0 c36 0 57 4 59 13 3 6 12 185
20 397 9 212 19 415 23 453 l6 67 -56 0 c-55 0 -56 0 -62 -32 -3 -18 -6 -60
-8 -93 l-2 -60 -70 0 -70 0 2 55 c1 30 5 112 9 183 l6 127 334 0 335 0 -6
-172z m735 80 c0 -51 -3 -130 -7 -175 l-6 -83 -70 0 -70 0 6 85 6 85 -139 0
-138 0 -6 -72 c-3 -40 -7 -112 -8 -161 l-3 -87 118 0 117 0 0 -32 c0 -18 -3
-63 -7 -100 l-6 -68 -113 0 c-62 0 -115 -3 -117 -7 -3 -5 -8 -97 -12 -205 l-7
-198 136 0 136 0 0 39 c0 21 3 66 6 100 l7 61 68 0 69 0 0 -47 c0 -27 -3 -112
-7 -190 l-6 -143 -340 0 -340 0 7 38 c3 20 6 60 6 89 l0 52 48 3 47 3 7 140
c3 77 11 253 17 390 6 138 14 282 17 322 l6 72 -49 3 c-38 2 -48 7 -47 21 0 9
1 49 2 87 l2 70 335 0 335 0 0 -92z m1695 -70 c-9 -226 -2 -210 -83 -206 l-67
3 3 93 3 92 -55 0 c-54 0 -55 0 -60 -32 -3 -18 -12 -206 -21 -418 -8 -212 -16
-405 -18 -430 l-2 -45 59 -3 59 -3 -7 -52 c-3 -29 -6 -69 -6 -89 l0 -38 -196
0 -197 0 7 61 c3 34 6 75 6 90 0 28 1 29 55 29 53 0 54 0 59 33 5 35 36 758
36 845 l0 52 -55 0 -54 0 -3 -92 -3 -93 -70 0 -70 0 3 120 c1 66 5 148 8 183
l6 62 334 0 335 0 -6 -162z m411 131 c-3 -17 -6 -58 -6 -90 l0 -59 -44 0 -45
0 -5 -52 c-5 -48 -12 -205 -34 -711 -4 -87 -5 -161 -3 -163 2 -2 24 -4 49 -4
l45 0 -7 -52 c-3 -29 -6 -70 -6 -90 l0 -38 -175 0 -175 0 0 44 c0 24 3 64 6
90 l7 46 43 0 c41 0 43 2 48 33 5 34 36 769 36 850 l0 47 -45 0 c-51 0 -51 -1
-39 119 l7 61 175 0 175 0 -7 -31z m350 -30 c-3 -34 -6 -75 -6 -90 0 -27 -3
-29 -41 -29 -34 0 -39 -3 -35 -17 3 -10 16 -81 30 -158 76 -426 93 -512 100
-504 4 4 186 662 186 673 0 3 -19 6 -41 6 l-42 0 7 46 c3 26 6 66 6 90 l0 44
150 0 150 0 0 -37 c0 -21 -3 -62 -6 -90 -6 -50 -8 -53 -35 -53 -18 0 -29 -6
-33 -17 -2 -10 -48 -173 -101 -363 -54 -190 -123 -435 -154 -545 l-57 -200
-55 -3 -55 -3 -16 83 c-10 46 -58 290 -108 543 -49 253 -92 470 -95 483 -4 17
-13 22 -35 22 l-30 0 0 68 c0 120 -12 112 168 112 l155 0 -7 -61z m1188 -31
c-3 -51 -7 -130 -10 -175 l-6 -83 -70 0 -70 0 7 85 7 85 -139 0 -140 0 -7 -92
c-3 -50 -6 -122 -6 -160 l0 -68 115 0 115 0 0 -54 c0 -29 -3 -74 -6 -100 l-7
-46 -113 0 -112 0 -6 -27 c-3 -16 -8 -108 -12 -205 l-6 -178 135 0 134 0 7 61
c3 34 6 79 6 100 l0 39 70 0 70 0 0 -77 c0 -43 -3 -129 -7 -190 l-6 -113 -340
0 c-305 0 -339 2 -333 16 3 9 6 49 6 89 l0 74 48 3 47 3 7 130 c3 72 11 238
17 370 6 132 14 281 18 332 l6 92 -49 3 c-27 2 -48 6 -46 11 1 4 2 43 2 87 l0
80 339 0 340 0 -5 -92z"/>
<path d="M5726 4218 c-2 -7 -11 -195 -20 -418 -9 -223 -19 -427 -22 -454 l-6
-49 99 5 c114 5 166 25 227 84 124 120 172 454 95 661 -30 79 -98 146 -168
167 -67 20 -200 22 -205 4z"/>
<path d="M5510 2320 l0 -390 2400 0 2400 0 0 390 0 390 -2400 0 -2400 0 0
-390z m1304 324 c16 -10 26 -12 31 -5 3 6 17 11 31 11 22 0 24 -3 24 -54 0
-29 -3 -68 -6 -85 -6 -27 -11 -32 -31 -29 -19 2 -28 13 -38 42 -16 45 -29 56
-67 56 -20 0 -31 -8 -43 -30 -31 -60 -18 -80 84 -131 82 -41 101 -72 101 -162
0 -77 -17 -126 -56 -162 -34 -32 -99 -34 -137 -5 -32 25 -37 25 -37 0 0 -15
-7 -20 -25 -20 -14 0 -28 6 -30 13 -3 6 -2 53 2 102 8 87 9 90 34 93 24 3 28
-2 38 -43 21 -83 79 -111 120 -59 25 32 27 81 5 112 -8 12 -44 36 -79 51 -80
36 -105 72 -105 149 0 100 51 172 122 172 21 0 49 -7 62 -16z m1561 -27 c24
-24 35 -46 40 -79 11 -72 -14 -139 -100 -263 -41 -60 -75 -113 -75 -118 0 -4
21 -7 48 -5 l47 3 3 43 c3 41 4 42 38 42 33 0 34 -1 34 -39 0 -21 -3 -59 -6
-85 l-7 -47 -121 3 -121 3 1 40 c0 34 15 63 79 160 104 160 117 186 113 231
-3 43 -24 60 -60 51 -29 -8 -48 -49 -48 -103 0 -32 -2 -34 -36 -34 l-37 0 7
63 c9 78 31 124 70 148 48 30 92 25 131 -14z m272 13 c48 -29 56 -70 51 -266
-5 -184 -14 -223 -64 -269 -49 -45 -127 -29 -158 33 -23 46 -25 85 -16 244 9
171 20 209 69 251 38 32 74 34 118 7z m270 -87 c-4 -49 -10 -157 -13 -240 l-7
-153 22 0 c20 0 22 -5 19 -37 l-3 -38 -75 0 -75 0 -3 37 c-3 32 0 37 20 40 21
3 23 9 29 88 4 47 9 136 12 198 5 106 5 112 -14 112 -16 0 -19 7 -19 40 l0 40
56 0 57 0 -6 -87z m290 -25 c-22 -389 -22 -368 2 -368 20 0 22 -5 19 -37 l-3
-38 -75 0 -75 0 -3 37 c-3 32 0 37 20 40 21 3 24 10 29 78 4 41 9 130 12 198
5 115 4 122 -14 122 -16 0 -19 7 -19 40 l0 40 56 0 57 0 -6 -112z m-2154 85
c2 -5 2 -29 -1 -55 l-4 -48 -38 0 c-22 0 -41 3 -43 8 -2 4 -2 28 1 55 l4 47
38 0 c22 0 41 -3 43 -7z m304 -169 c14 -22 17 -48 15 -155 -3 -113 -1 -129 13
-129 13 0 16 -8 13 -37 l-3 -38 -65 0 -65 0 -3 36 c-2 29 1 37 16 41 16 5 20
18 26 87 10 123 -7 159 -59 125 -30 -20 -45 -69 -45 -151 0 -49 3 -63 15 -63
11 0 15 -11 15 -40 l0 -40 -63 0 c-35 0 -66 2 -68 5 -10 10 4 75 16 75 16 0
25 54 25 148 0 57 -3 72 -15 72 -11 0 -15 11 -15 40 l0 40 50 0 c44 0 50 -2
50 -21 0 -20 1 -20 31 5 42 36 92 35 116 0z m243 16 c13 -7 21 -7 25 0 3 5 15
10 26 10 17 0 19 -7 19 -70 0 -62 -2 -70 -19 -70 -11 0 -33 14 -49 30 -33 32
-48 36 -73 17 -27 -21 -39 -54 -39 -112 0 -46 4 -60 25 -81 30 -30 58 -26 93
13 l24 26 20 -21 21 -20 -22 -35 c-28 -45 -62 -67 -104 -67 -129 0 -174 239
-67 351 39 41 80 51 120 29z m329 -20 c34 -34 51 -84 51 -147 l0 -43 -105 0
c-67 0 -105 -4 -105 -10 0 -24 31 -68 51 -73 23 -6 63 6 74 22 3 6 22 11 41
11 32 0 35 -2 28 -22 -20 -64 -64 -98 -127 -98 -52 0 -87 23 -111 74 -23 48
-21 169 3 221 43 95 139 126 200 65z m-886 -130 c-6 -137 -5 -150 11 -150 14
0 17 -8 14 -37 l-3 -38 -67 -3 -68 -3 0 39 c0 31 4 41 20 45 17 4 20 14 20 59
0 29 3 77 6 106 6 48 5 52 -15 52 -17 0 -21 6 -21 33 0 44 4 47 61 47 l48 0
-6 -150z"/>
<path d="M8563 2552 c-6 -4 -16 -19 -22 -33 -12 -34 -25 -267 -17 -313 13 -70
77 -69 95 2 17 67 24 294 9 322 -14 26 -44 36 -65 22z"/>
<path d="M7823 2370 c-21 -9 -43 -38 -43 -59 0 -12 122 -16 133 -5 11 11 -15
52 -40 63 -13 6 -25 11 -26 10 -1 0 -12 -4 -24 -9z"/>
</g>
</svg>
